<svg width="236" height="150" viewBox="0 0 236 150" fill="none" xmlns="http://www.w3.org/2000/svg">
<path d="M17.7582 0.735352C14.3799 0.735352 11.2794 1.75023 8.62814 3.42035L110.3 89.4321C114.954 93.3745 121.228 93.3745 125.872 89.4321L227.365 3.42035C224.715 1.75023 221.615 0.735352 218.235 0.735352H17.7582ZM1.55818 12.2803C0.944914 14.0483 0.573242 15.9342 0.573242 17.9178V132.478C0.573242 135.928 1.61003 139.099 3.34818 141.786L76.1147 75.468L1.55818 12.2803ZM234.438 12.2803L160.06 75.3801L232.648 141.789C234.385 139.102 235.423 135.932 235.423 132.482V17.9218C235.423 15.9381 235.05 14.0481 234.438 12.2803ZM151.295 82.8937L133.215 98.1988C124.47 105.616 111.619 105.606 102.875 98.1988L84.8846 82.9838L12.6551 148.856C14.2714 149.355 15.9715 149.661 17.7575 149.661H218.237C220.021 149.661 221.723 149.355 223.34 148.856L151.295 82.8937Z" fill="#242121"/>
</svg>
